<svg id="Layer_1" data-name="Layer 1" xmlns="http://www.w3.org/2000/svg" viewBox="0 0 1886.81 882.15"><defs><style>.cls-1{font-size:204.2px;letter-spacing:0em;}.cls-1,.cls-6{fill:#281676;}.cls-1,.cls-3,.cls-4{font-family:TimesNewRomanPS-ItalicMT, Times New Roman;font-style:italic;}.cls-2{letter-spacing:-0.05em;}.cls-3{font-size:726px;fill:#261b63;letter-spacing:0em;}.cls-4{font-size:242.79px;letter-spacing:0em;}.cls-4,.cls-7{fill:#cc2627;}.cls-5{stroke:#000;stroke-miterlimit:10;stroke-width:13.03px;}</style></defs><title>logo</title><text class="cls-1" transform="translate(485.75 633.51) scale(1.21 1)">UCLEAR S.A.<tspan class="cls-2"><tspan x="0" y="184.56">CERNAVODA</tspan></tspan></text><text class="cls-3" transform="translate(21.55 659.53)">N</text><text class="cls-4" transform="translate(570.58 385.72) scale(1.24 1)">STIZO</text><line class="cls-5" x1="499.03" y1="432.27" x2="1851.03" y2="432.27"/><path class="cls-6" d="M1550.43,304.54a123.14,123.14,0,0,0,10.63,25.4h217.42a123.72,123.72,0,0,0,10.64-25.4Z" transform="translate(-84.59 -50.96)"/><path class="cls-6" d="M1545.39,269.5c0,3.55.18,7.05.47,10.52h247.82c.29-3.47.47-7,.47-10.52a125,125,0,0,0-2.8-26.27H1548.2A124.3,124.3,0,0,0,1545.39,269.5Z" transform="translate(-84.59 -50.96)"/><path class="cls-6" d="M1583.28,358.85a124.26,124.26,0,0,0,173,0Z" transform="translate(-84.59 -50.96)"/><path class="cls-6" d="M1566.41,200.31a123.91,123.91,0,0,0-11,20.14h228.64a123.15,123.15,0,0,0-11-20.14Z" transform="translate(-84.59 -50.96)"/><path class="cls-6" d="M1743.93,169.65a124.37,124.37,0,0,0-148.32,0Z" transform="translate(-84.59 -50.96)"/><polygon class="cls-7" points="1704.75 0 1704.75 185.26 1594.38 185.26 1704.75 0"/></svg>